<?xml version="1.0" encoding="utf-8"?>
<!-- Generator: Adobe Illustrator 25.2.1, SVG Export Plug-In . SVG Version: 6.00 Build 0)  -->
<svg version="1.1" id="Layer_1" xmlns="http://www.w3.org/2000/svg" xmlns:xlink="http://www.w3.org/1999/xlink" x="0px" y="0px"
	 viewBox="0 0 137 23" style="enable-background:new 0 0 137 23;" xml:space="preserve">
<style type="text/css">
	.st0{fill:#FFFFFF;}
	.st1{fill:#FFBD00;}
</style>
<path class="st0" d="M34.9,0h-2.8v23h2.8V0z"/>
<path class="st0" d="M82.1,12.9h22.8v-2.8h-20V2.8h20V0H82.1V12.9z"/>
<path class="st0" d="M104.9,20.2H82.1V23h22.8V20.2z"/>
<path class="st0" d="M134.2,14.5v5.7H117V0h-2.8v23H137v-8.5H134.2z"/>
<path class="st1" d="M67.9,0l-9.4,9.5L49.1,0h-3.9l11.4,11.5L45.1,23h3.9l9.4-9.5l9.4,9.5h3.9L60.5,11.5L71.9,0H67.9z"/>
<path class="st0" d="M16.6,0H0v2.8h16.6c1.9,0,3.4,1.6,3.4,3.5v10.4c0,1.9-1.5,3.5-3.4,3.5H2.8V2.1H0V23h16.6c3.4,0,6.2-2.8,6.2-6.3
	V6.3C22.8,2.8,20,0,16.6,0z"/>
</svg>
