<svg width="110" height="19" viewBox="0 0 110 19" fill="none" xmlns="http://www.w3.org/2000/svg">
<path d="M28.0109 0H25.7726V18.9989H28.0109V0Z" fill="black"/>
<path d="M65.9368 10.662H84.2274V8.33696H68.1751V2.325H84.2274V0.00108696H65.9368V10.662Z" fill="black"/>
<path d="M84.2274 16.675H65.9368V19H84.2274V16.675Z" fill="black"/>
<path d="M107.763 11.9663V16.675H93.9477V0H91.7094V18.9989H110V11.9663H107.763Z" fill="black"/>
<path d="M54.5359 0.00108696L46.9744 7.85761L39.4108 0.00108696H36.2453L45.3911 9.5L36.2453 19H39.4087L46.9744 11.1424L54.539 19H57.7014L48.5566 9.5L57.7014 0.00108696H54.5359Z" fill="#FFBD00"/>
<path d="M13.3002 0H0V2.325H13.3002C14.8175 2.325 16.0533 3.60761 16.0533 5.18478V13.8163C16.0533 15.3935 14.8185 16.6761 13.3002 16.6761H2.23832V2.325H0V19H13.3002C16.0523 19 18.2906 16.675 18.2906 13.8163V5.1837C18.2906 2.325 16.0523 0 13.3002 0Z" fill="black"/>
<path d="M54.5359 0.00108696L46.9744 7.85761L39.4108 0.00108696H36.2453L45.3911 9.5L36.2453 19H39.4087L46.9744 11.1424L54.539 19H57.7014L48.5566 9.5L57.7014 0.00108696H54.5359Z" fill="#FFBD00"/>
</svg>
