<svg width="137" height="23" viewBox="0 0 137 23" fill="none" xmlns="http://www.w3.org/2000/svg">
<path d="M34.8863 0H32.0986V22.9987H34.8863V0Z" fill="black"/>
<path d="M82.1213 12.9066H104.901V10.0921H84.909V2.81447H104.901V0.00131579H82.1213V12.9066Z" fill="black"/>
<path d="M104.901 20.1855H82.1213V23H104.901V20.1855Z" fill="black"/>
<path d="M134.214 14.4855V20.1855H117.008V0H114.22V22.9987H137V14.4855H134.214Z" fill="black"/>
<path d="M67.922 0.00131579L58.5045 9.51184L49.0843 0.00131579H45.1419L56.5326 11.5L45.1419 23H49.0817L58.5045 13.4882L67.9259 23H71.8644L60.475 11.5L71.8644 0.00131579H67.922Z" fill="#FFBD00"/>
<path d="M16.5648 0H0V2.81447H16.5648C18.4545 2.81447 19.9937 4.36711 19.9937 6.27632V16.725C19.9937 18.6342 18.4558 20.1868 16.5648 20.1868H2.78773V10.0947H0V23H16.5648C19.9924 23 22.7801 20.1855 22.7801 16.725V6.275C22.7801 2.81447 19.9924 0 16.5648 0Z" fill="black"/>
</svg>
