<svg width="20" height="15" viewBox="0 0 20 15" fill="none" xmlns="http://www.w3.org/2000/svg">
<path fill-rule="evenodd" clip-rule="evenodd" d="M9.99994 12.4732C9.13206 12.4732 8.42851 11.8136 8.42851 11V10.915C8.42851 10.1014 9.13206 9.44179 9.99993 9.44179C10.8678 9.44179 11.5714 10.1014 11.5714 10.915V11C11.5714 11.8136 10.8678 12.4732 9.99994 12.4732ZM9.99995 7.85714C9.13207 7.85714 8.42852 7.19756 8.42852 6.38393V6.21394C8.42852 5.40031 9.13207 4.74073 9.99995 4.74073C10.8678 4.74073 11.5714 5.40031 11.5714 6.21394V6.38393C11.5714 7.19756 10.8678 7.85714 9.99995 7.85714ZM9.99995 3.03142C9.13207 3.03142 8.42852 2.37184 8.42852 1.55821V1.47321C8.42852 0.659581 9.13207 3.55651e-08 9.99995 0C10.8678 -3.55651e-08 11.5714 0.65958 11.5714 1.47321V1.55821C11.5714 2.37184 10.8678 3.03142 9.99995 3.03142Z" fill="#818181"/>
</svg>
