<svg width="4" height="16" viewBox="0 0 4 16" fill="none" xmlns="http://www.w3.org/2000/svg">
<path fill-rule="evenodd" clip-rule="evenodd" d="M2 16C0.895431 16 5.72819e-07 15.1046 5.24537e-07 14L5.19493e-07 13.8846C4.71211e-07 12.78 0.895431 11.8846 2 11.8846C3.10457 11.8846 4 12.78 4 13.8846V14C4 15.1046 3.10457 16 2 16ZM2 10.1154C0.895431 10.1154 3.15594e-07 9.21995 2.67312e-07 8.11539L2.57225e-07 7.88462C2.08942e-07 6.78005 0.895431 5.88462 2 5.88462C3.10457 5.88462 4 6.78005 4 7.88462V8.11538C4 9.21995 3.10457 10.1154 2 10.1154ZM2 4.11539C0.895431 4.11539 5.33259e-08 3.21995 5.0436e-09 2.11539L0 2C-4.82823e-08 0.895431 0.89543 4.82823e-08 2 0C3.10457 -4.82823e-08 4 0.89543 4 2V2.11539C4 3.21995 3.10457 4.11539 2 4.11539Z" fill="#818181"/>
</svg>
