<svg width="29" height="29" viewBox="0 0 29 29" fill="none" xmlns="http://www.w3.org/2000/svg">
<path d="M29 14.6045V14.5069C28.9986 12.3541 28.5188 10.2285 27.5953 8.28407C26.6718 6.33963 25.3278 4.62496 23.6605 3.2642L23.5768 3.19446L23.4792 3.12472C21.3507 1.44184 18.793 0.390208 16.0968 0.0893787C13.4006 -0.211451 10.6742 0.250587 8.22739 1.42297L8.04615 1.52061C6.06821 2.50782 4.34098 3.9328 2.9955 5.68744C1.65002 7.44207 0.721651 9.48028 0.280816 11.6474V11.6753C-0.255033 14.3557 -0.0208438 17.1331 0.956249 19.6857C1.93334 22.2384 3.61334 24.4618 5.80159 26.0983L5.98283 26.2378H5.99677C7.88983 27.6111 10.0868 28.5059 12.4002 28.846C14.7137 29.186 17.075 28.9612 19.2829 28.1906L19.4362 28.1348C22.2139 27.1248 24.6175 25.291 26.3263 22.8785C28.0352 20.4659 28.9679 17.5892 29 14.6324V14.6045ZM26.7136 13.4189L25.6541 13.391C23.5875 13.3927 21.53 13.6647 19.5338 14.2C19.0446 12.7559 18.4142 11.3636 17.6517 10.0433C19.6361 8.84715 21.4311 7.36153 22.9773 5.63549C25.128 7.68856 26.4564 10.4559 26.7136 13.4189ZM21.2347 4.25457C19.842 5.78536 18.2306 7.1015 16.4528 8.16022C14.9601 6.06697 13.138 4.22979 11.0575 2.7202C12.7638 2.22417 14.5574 2.10448 16.3145 2.36938C18.0715 2.63428 19.7502 3.27747 21.2347 4.25457ZM8.58986 3.75241C10.8746 5.18682 12.8664 7.04233 14.4592 9.22032C11.6722 10.4963 8.64345 11.1575 5.57853 11.1592C4.63187 11.1571 3.68641 11.0919 2.74844 10.9639C3.68373 7.89127 5.77918 5.30435 8.58986 3.75241ZM2.2326 14.5069C2.2326 14.0466 2.26049 13.6002 2.30231 13.1678C3.38851 13.312 4.48282 13.3866 5.57853 13.391C9.07646 13.396 12.5308 12.6142 15.686 11.1034C16.3812 12.3036 16.9556 13.5698 17.4008 14.8835C16.218 15.3345 15.0714 15.8754 13.9712 16.5016C10.9138 18.2727 8.29331 20.7086 6.30348 23.6294C5.02294 22.4799 3.99866 21.0735 3.29728 19.5018C2.5959 17.9301 2.23314 16.2282 2.2326 14.5069ZM8.08797 24.9685C10.5042 21.3695 13.9702 18.603 18.0142 17.0456C18.354 18.58 18.5269 20.1467 18.53 21.7184C18.5293 23.2426 18.3658 24.7624 18.0421 26.2517C16.8952 26.6062 15.7013 26.7849 14.501 26.7818C12.237 26.781 10.0175 26.1534 8.08797 24.9685ZM20.5097 25.2056C20.6775 24.0508 20.7613 22.8853 20.7607 21.7184C20.7595 19.9109 20.5537 18.1093 20.1472 16.3481C21.9437 15.8688 23.7948 15.625 25.6541 15.6228L26.7136 15.6507C26.5273 17.6261 25.8657 19.5271 24.7854 21.191C23.705 22.8549 22.238 24.2324 20.5097 25.2056Z" fill="#818181"/>
</svg>
