<svg width="29" height="29" viewBox="0 0 29 29" fill="none" xmlns="http://www.w3.org/2000/svg">
<path d="M29 14.5C29 11.6322 28.1496 8.82875 26.5563 6.44424C24.963 4.05972 22.6984 2.20122 20.0489 1.10375C17.3994 0.00628262 14.4839 -0.280866 11.6712 0.27862C8.85847 0.838105 6.27482 2.2191 4.24696 4.24696C2.2191 6.27482 0.838105 8.85847 0.27862 11.6712C-0.280866 14.4839 0.00628262 17.3994 1.10375 20.0489C2.20122 22.6984 4.05972 24.963 6.44424 26.5563C8.82875 28.1496 11.6322 29 14.5 29C18.3445 28.9963 22.0305 27.4674 24.749 24.749C27.4674 22.0305 28.9963 18.3445 29 14.5ZM15.6154 26.7135V17.8462H18.9615C19.2574 17.8462 19.5411 17.7286 19.7502 17.5195C19.9594 17.3103 20.0769 17.0266 20.0769 16.7308C20.0769 16.435 19.9594 16.1513 19.7502 15.9421C19.5411 15.7329 19.2574 15.6154 18.9615 15.6154H15.6154V12.2692C15.6154 11.6776 15.8504 11.1102 16.2688 10.6918C16.6871 10.2735 17.2545 10.0385 17.8462 10.0385H20.0769C20.3727 10.0385 20.6564 9.92095 20.8656 9.71178C21.0748 9.5026 21.1923 9.2189 21.1923 8.92308C21.1923 8.62726 21.0748 8.34356 20.8656 8.13439C20.6564 7.92521 20.3727 7.8077 20.0769 7.8077H17.8462C16.664 7.81137 15.5313 8.28261 14.6954 9.11851C13.8595 9.95442 13.3883 11.0871 13.3846 12.2692V15.6154H10.0385C9.74265 15.6154 9.45895 15.7329 9.24977 15.9421C9.0406 16.1513 8.92308 16.435 8.92308 16.7308C8.92308 17.0266 9.0406 17.3103 9.24977 17.5195C9.45895 17.7286 9.74265 17.8462 10.0385 17.8462H13.3846V26.7135C10.2403 26.4264 7.32775 24.9383 5.25268 22.5586C3.17761 20.1789 2.09982 17.0908 2.24348 13.9368C2.38715 10.7827 3.74121 7.8054 6.02402 5.6242C8.30684 3.443 11.3427 2.22581 14.5 2.22581C17.6574 2.22581 20.6932 3.443 22.976 5.6242C25.2588 7.8054 26.6129 10.7827 26.7565 13.9368C26.9002 17.0908 25.8224 20.1789 23.7473 22.5586C21.6723 24.9383 18.7597 26.4264 15.6154 26.7135Z" fill="#818181"/>
</svg>
